<?xml version="1.0" encoding="utf-8"?>
<!-- Generator: Adobe Illustrator 26.0.0, SVG Export Plug-In . SVG Version: 6.00 Build 0)  -->
<svg version="1.1" id="Layer_1" xmlns="http://www.w3.org/2000/svg" xmlns:xlink="http://www.w3.org/1999/xlink" x="0px" y="0px"
	 viewBox="0 0 179.3 179.4" style="enable-background:new 0 0 179.3 179.4;" xml:space="preserve">
<style type="text/css">
	.st0{fill:#FFFFFF;}
</style>
<g>
	<path d="M0,89.7C0,40.2,40.2,0,89.7,0c49.4,0,89.6,40.3,89.6,89.9c0,49.4-40.4,89.6-89.9,89.5C40.2,179.3,0,139,0,89.7z
		 M146.6,89.8c0-31.7-25-56.9-56.6-57.1c-31.8-0.1-57.2,25.1-57.2,56.9c0,31.8,25.2,57.1,57,57.1
		C121.4,146.6,146.5,121.5,146.6,89.8z M6,92.9c1.2,20.8,8.5,38.6,21.8,53.1c5-5,9.7-9.7,14.6-14.5c-9.4-10.7-14.7-23.7-15.7-38.6
		C19.8,92.9,13.1,92.9,6,92.9z M86.5,6C65.8,7.1,48,14.5,33.2,28c4.9,4.9,9.6,9.6,14.5,14.5c10.9-9.6,23.9-14.9,38.7-15.9
		C86.5,19.6,86.5,12.9,86.5,6z M136.6,47.5c9.8,11.1,15.1,24.1,16,39c7,0,13.7,0,20.7,0c-1.2-20.7-8.4-38.5-22.1-53.4
		C146.2,37.9,141.6,42.6,136.6,47.5z M145.9,151.2c-4.7-4.7-9.3-9.5-14.2-14.4c-11,9.6-24,15-38.9,15.9c0,7,0,13.6,0,20.3
		C108.4,174.4,134.9,163.4,145.9,151.2z"/>
	<path class="st0" d="M146.6,89.8c0,31.7-25.2,56.8-56.8,56.9c-31.8,0-57.1-25.3-57-57.1c0-31.8,25.4-57,57.2-56.9
		C121.6,32.9,146.6,58.1,146.6,89.8z M83.5,114.5c-1.2,3.3-2.6,7.1-3.9,10.9c-1.3,3.9-0.3,5.4,3.8,5.4c4.2,0,8.5,0,12.7,0
		c4.1,0,5.2-1.5,3.8-5.3c-1.3-3.8-2.8-7.6-4.3-11.8c1.1,0.2,1.8,0.2,2.5,0.4c10,2.1,19.7-2.2,24.5-10.8c5-8.8,3.6-19.4-3.8-26.8
		c-8.6-8.7-17.3-17.2-25.8-25.9c-2.1-2.2-3.9-2.7-6.3-0.3c-8.9,9.1-18.1,17.9-26.8,27C48.6,89,53.9,109,69.5,113.4
		C73.8,114.7,78.7,114.2,83.5,114.5z"/>
	<path class="st0" d="M6,92.9c7.1,0,13.8,0,20.7,0c0.9,14.9,6.3,27.8,15.7,38.6c-4.8,4.8-9.6,9.5-14.6,14.5
		C14.5,131.5,7.2,113.7,6,92.9z"/>
	<path class="st0" d="M86.5,6c0,6.9,0,13.6,0,20.6c-14.8,1-27.9,6.3-38.7,15.9c-4.9-4.9-9.6-9.6-14.5-14.5C48,14.5,65.8,7.1,86.5,6z
		"/>
	<path class="st0" d="M136.6,47.5c5-4.9,9.6-9.6,14.5-14.5c13.7,14.9,21,32.7,22.1,53.4c-7,0-13.7,0-20.7,0
		C151.7,71.6,146.4,58.6,136.6,47.5z"/>
	<path class="st0" d="M145.9,151.2c-11,12.2-37.6,23.2-53.1,21.8c0-6.6,0-13.3,0-20.3c14.9-0.9,27.9-6.3,38.9-15.9
		C136.6,141.7,141.3,146.5,145.9,151.2z"/>
	<path d="M83.5,114.5c-4.8-0.3-9.6,0.1-14-1.1C53.9,109,48.6,89,59.8,77.3c8.8-9.2,17.9-18,26.8-27c2.4-2.4,4.1-1.9,6.3,0.3
		c8.6,8.7,17.3,17.2,25.8,25.9c7.3,7.4,8.7,18,3.8,26.8c-4.8,8.6-14.6,12.9-24.5,10.8c-0.7-0.1-1.4-0.2-2.5-0.4
		c1.5,4.2,3,8,4.3,11.8c1.3,3.9,0.3,5.3-3.8,5.3c-4.2,0-8.5,0-12.7,0c-4.1,0-5.1-1.5-3.8-5.4C80.8,121.6,82.3,117.8,83.5,114.5z"/>
</g>
</svg>
